PathFileType	4	(X/Y/Z)	/Users/itak/Documents/Research/Walk-IL/dataset/trc/00250_00009.trc
DataRate	CameraRate	NumFrames	NumMarkers	Units	OrigDataRate	OrigDataStartFrame	OrigNumFrames
100.000000	100.000000	4	53	mm	100.000000	211	565
Frame#	Time	RPSI			LPSI			L3			STRN			T10			C7			CLAV			RBAK			LBAK			LSHO			LUPA			LAEL			LAOL			LWTS			LWPS			LFRA			LIFD			LHPS			LHTS			RSHO			RUPA			RAEL			RAOL			RWTS			RWPS			RFRA			RHTS			RHPS			RBHD			LFHD			RFHD			LBHD			LHIP			RHIP			RASI			LASI			LKNE			LTHI			LANK			LTIP			LTOE			LMT1			LMT5			LHEE			RKNE			RTHI			RANK			RTIP			RTOE			RMT1			RMT5			RHEE			RIFD			
		X1	Y1	Z1	X2	Y2	Z2	X3	Y3	Z3	X4	Y4	Z4	X5	Y5	Z5	X6	Y6	Z6	X7	Y7	Z7	X8	Y8	Z8	X9	Y9	Z9	X10	Y10	Z10	X11	Y11	Z11	X12	Y12	Z12	X13	Y13	Z13	X14	Y14	Z14	X15	Y15	Z15	X16	Y16	Z16	X17	Y17	Z17	X18	Y18	Z18	X19	Y19	Z19	X20	Y20	Z20	X21	Y21	Z21	X22	Y22	Z22	X23	Y23	Z23	X24	Y24	Z24	X25	Y25	Z25	X26	Y26	Z26	X27	Y27	Z27	X28	Y28	Z28	X29	Y29	Z29	X30	Y30	Z30	X31	Y31	Z31	X32	Y32	Z32	X33	Y33	Z33	X34	Y34	Z34	X35	Y35	Z35	X36	Y36	Z36	X37	Y37	Z37	X38	Y38	Z38	X39	Y39	Z39	X40	Y40	Z40	X41	Y41	Z41	X42	Y42	Z42	X43	Y43	Z43	X44	Y44	Z44	X45	Y45	Z45	X46	Y46	Z46	X47	Y47	Z47	X48	Y48	Z48	X49	Y49	Z49	X50	Y50	Z50	X51	Y51	Z51	X52	Y52	Z52	X53	Y53	Z53	

212	2.11	-1318.712158203125	1020.726196289062	-305.9734191894531	-1293.996826171875	1023.582153320312	-423.8245849609375	-1303.071044921875	1109.250122070312	-376.4320373535156	-1040.960327148438	1279.568359375	-318.0278015136719	-1298.547241210938	1232.974487304688	-363.2161254882812	-1219.470947265625	1489.490356445312	-346.9250793457031	-1060.429565429688	1398.927612304688	-317.8360290527344	-1313.567504882812	1354.517700195312	-291.0132446289062	-1223.041625976562	1455.085571289062	-458.9413757324219	-1127.076782226562	1451.935913085938	-501.8162231445312	-1160.197875976562	1335.794921875	-583.3956909179688	-1179.824829101562	1126.406616210938	-611.443115234375	-1254.106811523438	1121.156127929688	-565.8529663085938	-1131.565307617188	879.1538696289062	-557.6416015625	-1158.725463867188	868.8770751953125	-638.0482177734375	-1175.56787109375	1017.739074707031	-626.7503051757812	-1164.792358398438	685.8776245117188	-569.5702514648438	-1159.1640625	778.7500610351562	-636.015380859375	-1117.720825195312	773.2391967773438	-580.5115966796875	-1197.755493164062	1448.364990234375	-170.9141235351562	-1232.78369140625	1384.855102539062	-108.9827346801758	-1276.611328125	1105.029174804688	-80.04962158203125	-1295.084716796875	1102.723876953125	-173.5014343261719	-1152.232788085938	878.7579956054688	-110.3074264526367	-1215.678466796875	869.37890625	-52.07147979736328	-1257.37744140625	1034.720947265625	-65.38221740722656	-1128.150634765625	754.98583984375	-91.52089691162109	-1186.885498046875	759.6980590820312	-47.70204925537109	-1189.101806640625	1642.503051757812	-306.7189331054688	-964.0448608398438	1680.210571289062	-316.4268493652344	-1003.925598144531	1678.186401367188	-224.0898284912109	-1095.746948242188	1649.171264648438	-411.5499572753906	-1158.939697265625	964.724609375	-532.538330078125	-1254.024658203125	976.55322265625	-177.5166473388672	-1147.388061523438	1013.222473144531	-187.710205078125	-1077.31787109375	1002.194213867188	-456.9321899414062	-952.5157470703125	526.0796508789062	-437.2065734863281	-1009.190673828125	653.7918090820312	-486.301513671875	-894.2108154296875	37.3044319152832	-429.18896484375	-930.090087890625	296.0445251464844	-446.4554443359375	-731.7051391601562	107.5313186645508	-304.3981323242188	-805.8116455078125	81.73944091796875	-287.6802368164062	-775.500732421875	64.73899078369141	-395.4349365234375	-971.490234375	33.34183502197266	-405.547607421875	-1302.809936523438	496.1593627929688	-238.9553527832031	-1228.373413085938	748.9757080078125	-172.5841979980469	-1501.223754882812	50.34663772583008	-319.2932434082031	-1325.375732421875	378.6034851074219	-270.6821899414062	-1289.917236328125	45.33345031738281	-350.9400329589844	-1343.931030273438	43.99941253662109	-395.5065307617188	-1394.680053710938	40.42583847045898	-286.5267333984375	-1562.674438476562	61.93962097167969	-377.4380493164062	-1156.615478515625	685.1514282226562	-116.8558807373047	
213	2.12	-1311.004760742188	1020.021850585938	-306.5319213867188	-1285.532836914062	1022.991271972656	-424.2102966308594	-1294.911987304688	1108.227661132812	-376.8395080566406	-1033.764404296875	1279.265014648438	-316.2568359375	-1290.972412109375	1232.0283203125	-363.7025756835938	-1212.6552734375	1488.78564453125	-346.8215637207031	-1053.634887695312	1398.571533203125	-316.334228515625	-1306.861938476562	1353.54296875	-291.7350769042969	-1215.201416015625	1454.291137695312	-458.8654479980469	-1118.91796875	1451.330200195312	-500.8676452636719	-1150.954345703125	1335.11083984375	-582.7528076171875	-1169.600341796875	1125.672485351562	-611.229248046875	-1244.587158203125	1120.275634765625	-566.680908203125	-1121.876953125	878.532958984375	-556.5164184570312	-1147.306762695312	868.1398315429688	-637.1803588867188	-1164.850830078125	1016.969848632812	-626.400390625	-1153.589965820312	685.1985473632812	-568.4991455078125	-1147.38623046875	778.0245361328125	-635.031494140625	-1106.638061523438	772.781982421875	-578.9080200195312	-1192.35693359375	1447.715454101562	-170.6660614013672	-1227.853271484375	1384.170288085938	-108.9964294433594	-1271.475830078125	1104.31005859375	-80.26976776123047	-1289.132690429688	1101.914306640625	-173.8777313232422	-1146.4599609375	878.2802734375	-109.4397735595703	-1210.248657226562	868.7830810546875	-51.69248580932617	-1252.2353515625	1034.035522460938	-65.41256713867188	-1122.047241210938	754.6428833007812	-90.30556488037109	-1181.32666015625	759.2367553710938	-46.80275344848633	-1182.724975585938	1642.03515625	-306.2520446777344	-957.6478881835938	1679.890869140625	-314.5549011230469	-998.0689697265625	1677.867797851562	-222.4813842773438	-1088.66650390625	1648.717407226562	-410.5027465820312	-1149.263793945312	964.2408447265625	-531.9142456054688	-1247.20263671875	975.8193359375	-177.6500244140625	-1140.549926757812	1012.648254394531	-186.8234558105469	-1068.62939453125	1001.717468261719	-455.5042114257812	-944.6031494140625	525.328125	-434.8430786132812	-1000.886169433594	652.7268676757812	-484.2651977539062	-892.691162109375	36.12981033325195	-428.74609375	-924.7362670898438	294.8897705078125	-444.5440673828125	-728.5025024414062	101.7828598022461	-303.4002990722656	-803.19921875	77.55451965332031	-286.6470947265625	-773.54443359375	60.46894454956055	-394.5500793457031	-970.0574340820312	33.69734191894531	-404.7662048339844	-1297.26171875	496.08984375	-238.6234588623047	-1222.176147460938	748.5045166015625	-172.0586395263672	-1500.680297851562	52.10268402099609	-319.04052734375	-1320.981079101562	378.5747375488281	-270.2364807128906	-1289.60498046875	45.15102005004883	-350.9917602539062	-1343.71826171875	44.35194396972656	-395.3821105957031	-1394.248168945312	40.5272216796875	-286.4235534667969	-1562.107177734375	64.8817138671875	-377.1361083984375	-1150.146484375	684.693359375	-115.8788375854492	
214	2.13	-1303.099243164062	1019.405395507812	-306.9659729003906	-1276.9208984375	1022.547424316406	-424.4820556640625	-1286.570678710938	1107.293701171875	-377.1523742675781	-1026.484008789062	1279.111694335938	-314.5010986328125	-1283.227416992188	1231.20068359375	-364.1738586425781	-1205.729858398438	1488.200561523438	-346.7253723144531	-1046.739135742188	1398.357788085938	-314.8353271484375	-1300.025390625	1352.666259765625	-292.4876098632812	-1207.2548828125	1453.625610351562	-458.7960510253906	-1110.662719726562	1450.8515625	-499.9081726074219	-1141.546508789062	1334.53955078125	-582.0951538085938	-1159.112915039062	1125.044311523438	-610.9948120117188	-1234.796752929688	1119.469482421875	-567.5140991210938	-1111.90673828125	877.9878540039062	-555.3729248046875	-1135.6015625	867.5321655273438	-636.3215942382812	-1153.821044921875	1016.318176269531	-626.023681640625	-1142.116455078125	684.6251831054688	-567.4939575195312	-1135.321533203125	777.4296264648438	-634.0822143554688	-1095.284301757812	772.4192504882812	-577.3382568359375	-1186.874755859375	1447.1796875	-170.4325866699219	-1222.838500976562	1383.594360351562	-109.0410766601562	-1266.251708984375	1103.696899414062	-80.58255004882812	-1283.015258789062	1101.209350585938	-174.3450012207031	-1140.591918945312	877.9063110351562	-108.5452880859375	-1204.782836914062	868.2953491210938	-51.34726715087891	-1247.029418945312	1033.461669921875	-65.52001190185547	-1115.89208984375	754.4046630859375	-89.04563903808594	-1175.764892578125	758.8829345703125	-45.85551071166992	-1176.259643554688	1641.695678710938	-305.8089904785156	-951.1945190429688	1679.72998046875	-312.6703186035156	-992.1459350585938	1677.706176757812	-220.8759002685547	-1081.486206054688	1648.401611328125	-409.4641418457031	-1139.550170898438	963.9505615234375	-531.2752075195312	-1240.103393554688	975.127197265625	-177.7312774658203	-1133.436401367188	1012.174072265625	-185.968505859375	-1059.823852539062	1001.444274902344	-454.1252136230469	-936.5847778320312	524.8082275390625	-432.4742736816406	-992.5848388671875	651.8140869140625	-482.1978759765625	-891.671142578125	35.19960784912109	-428.4703369140625	-919.466796875	293.9395141601562	-442.6641235351562	-725.5405883789062	95.60109710693359	-302.5502319335938	-800.91015625	73.16722106933594	-285.7419128417969	-772.0164184570312	56.10582733154297	-393.8828735351562	-969.0682373046875	34.37721633911133	-404.1150512695312	-1291.416748046875	496.0760192871094	-238.2889251708984	-1215.609252929688	748.0819091796875	-171.5533294677734	-1500.064453125	54.07550811767578	-318.7222900390625	-1316.323974609375	378.6250305175781	-269.7768249511719	-1289.2900390625	44.98112487792969	-351.0403442382812	-1343.459228515625	44.76263046264648	-395.2602233886719	-1393.752685546875	40.68027114868164	-286.3216247558594	-1561.432861328125	68.13044738769531	-376.7817993164062	-1143.62060546875	684.3256225585938	-114.85107421875	
215	2.14	-1295.013549804688	1018.882934570312	-307.2469787597656	-1268.186279296875	1022.247192382812	-424.6106567382812	-1278.093139648438	1106.486694335938	-377.3457336425781	-1019.129821777344	1279.120971679688	-312.7635803222656	-1275.331420898438	1230.525268554688	-364.5978698730469	-1198.693481445312	1487.753784179688	-346.6200866699219	-1039.744995117188	1398.297485351562	-313.3389282226562	-1293.060668945312	1351.919067382812	-293.2376708984375	-1199.208129882812	1453.115234375	-458.7157897949219	-1102.3212890625	1450.521850585938	-498.9289855957031	-1131.989501953125	1334.10302734375	-581.408203125	-1148.3603515625	1124.546508789062	-610.714111328125	-1224.732543945312	1118.758178710938	-568.327392578125	-1101.58447265625	877.5526123046875	-554.1768798828125	-1123.612060546875	867.0804443359375	-635.4677734375	-1142.480102539062	1015.810180664062	-625.6014404296875	-1130.395385742188	684.1840209960938	-566.563720703125	-1122.980834960938	776.992431640625	-633.1672973632812	-1083.689819335938	772.1731567382812	-575.7993774414062	-1181.28662109375	1446.779907226562	-170.1976470947266	-1217.7158203125	1383.14892578125	-109.0983352661133	-1260.932495117188	1103.211547851562	-80.98764038085938	-1276.713745117188	1100.637817382812	-174.8982391357422	-1134.620727539062	877.6536865234375	-107.6143951416016	-1199.288330078125	867.9363403320312	-51.03965759277344	-1241.7529296875	1033.021606445312	-65.70738220214844	-1109.704956054688	754.2852172851562	-87.74237823486328	-1170.216674804688	758.650390625	-44.88817596435547	-1169.708862304688	1641.493041992188	-305.3841247558594	-944.6879272460938	1679.741333007812	-310.77734375	-986.15869140625	1677.710571289062	-219.2694244384766	-1074.212524414062	1648.236694335938	-408.4275207519531	-1129.854614257812	963.8722534179688	-530.6129150390625	-1232.7314453125	974.4944458007812	-177.7354583740234	-1126.059326171875	1011.818054199219	-185.1475830078125	-1050.91357421875	1001.41064453125	-452.8078918457031	-928.4615478515625	524.5301513671875	-430.1687927246094	-984.259521484375	651.13330078125	-480.1061401367188	-890.9360961914062	34.539794921875	-428.2865600585938	-914.1729125976562	293.2071838378906	-440.83935546875	-722.7229614257812	89.33756256103516	-301.7762451171875	-798.8329467773438	68.82360076904297	-284.9212036132812	-770.7379150390625	51.93698120117188	-393.3913269042969	-968.2799072265625	35.31591415405273	-403.5399780273438	-1285.239624023438	496.1220397949219	-237.9361114501953	-1208.665405273438	747.7218017578125	-171.0714721679688	-1499.36474609375	56.28059387207031	-318.335693359375	-1311.363891601562	378.7555847167969	-269.2844543457031	-1288.974365234375	44.82846832275391	-351.0840759277344	-1343.137573242188	45.23952102661133	-395.1404418945312	-1393.202392578125	40.88611221313477	-286.2306518554688	-1560.630859375	71.71787261962891	-376.3662414550781	-1137.055053710938	684.065673828125	-113.7771224975586	
